<svg viewBox="0 0 360 153" fill="none" xmlns="http://www.w3.org/2000/svg">
    <g>
        <path d="M0 0V152.942H360V0H0ZM28.241 145.314C16.0297 145.314 7.59812 139.409 7.59812 130.001C7.59812 120.592 16.0879 114.745 28.241 114.745C40.3941 114.745 48.9033 120.553 48.9033 130.001C48.9033 139.448 40.4135 145.314 28.241 145.314ZM87.3009 133.853C87.3009 141.132 80.9433 145.314 69.4298 145.314C57.9163 145.314 51.5781 141.132 51.5781 133.853V115.403H63.9638V133.621C63.9638 135.905 65.3206 137.493 69.4298 137.493C73.539 137.493 74.9152 135.963 74.9152 133.621V115.403H87.3009V133.853ZM123.45 123.36H112.654V144.656H100.268V123.36H89.4912V115.403H123.45V123.36ZM144.771 144.656H126.532V115.403H144.946C157.661 115.403 164.057 120.321 164.057 130.001C164.057 139.68 157.525 144.617 144.694 144.617L144.771 144.656ZM186.794 145.353C174.582 145.353 166.131 139.448 166.131 130.039C166.131 120.631 174.641 114.784 186.794 114.784C198.947 114.784 207.437 120.592 207.437 130.039C207.437 139.487 198.869 145.314 186.716 145.314L186.794 145.353ZM230.347 137.512C233.681 137.512 236.414 136.37 237.345 133.64H250.002C248.412 140.494 240.581 145.469 229.746 145.469C217.845 145.469 209.53 139.468 209.53 130.078C209.53 120.689 217.574 114.861 230.444 114.861C241.9 114.861 248.315 119.566 250.06 126.709H237.306C236.375 123.999 233.739 122.838 230.173 122.838C225.308 122.838 222.42 125.083 222.42 130.175C222.42 135.266 225.443 137.474 230.27 137.474L230.347 137.512ZM269.501 145.353C257.561 145.353 251.921 141.171 251.533 135.054H263.763C264.035 137.764 266.283 138.422 269.733 138.422C273.184 138.422 274.812 137.764 274.812 136.486C274.812 135.208 273.513 134.55 269.288 134.105L264.578 133.602C257.503 132.866 252.463 130.001 252.463 124.425C252.463 119.817 255.7 114.861 269.074 114.861C279.251 114.861 285.511 117.727 286.209 124.541H274.773C274.482 122.779 273.222 121.753 269.501 121.753C266.109 121.753 264.791 122.489 264.791 123.689C264.791 124.89 266.109 125.412 268.474 125.625L273.184 126.109C282.875 127.135 287.314 129.981 287.314 135.15C287.236 141.249 281.15 145.314 269.423 145.314L269.501 145.353Z" fill="black" style="fill:black;fill-opacity:1;"/>
    </g>
    <defs>
        <rect width="360" height="153" fill="white" style="fill:white;fill-opacity:1;"/>
    </defs>
</svg>
